<?xml version="1.0" encoding="UTF-8"?>
<svg id="Layer_1" xmlns="http://www.w3.org/2000/svg" xmlns:xlink="http://www.w3.org/1999/xlink" xmlns:inkscape="http://www.inkscape.org/namespaces/inkscape" version="1.1" viewBox="0 0 80 80">
  <!-- Generator: Adobe Illustrator 29.7.1, SVG Export Plug-In . SVG Version: 2.1.1 Build 8)  -->
  <defs>
    <style>
      .st0 {
        fill: url(#linear-gradient);
      }

      .st1, .st2, .st3 {
        fill: #53b848;
      }

      .st2 {
        font-family: Roboto-Bold, Roboto;
        font-size: 18.79px;
        font-weight: 700;
        letter-spacing: -.02em;
      }

      .st4 {
        fill: #2e2e2e;
      }

      .st3, .st5 {
        display: none;
      }

      .st6 {
        fill: #564ea1;
      }
    </style>
    <linearGradient id="linear-gradient" x1="40" y1="70.39" x2="40" y2="30.39" gradientTransform="translate(0 82) scale(1 -1)" gradientUnits="userSpaceOnUse">
      <stop offset="0" stop-color="#6fcc8d"/>
      <stop offset="1" stop-color="#53b848"/>
    </linearGradient>
  </defs>
  <g id="background">
    <path class="st4" d="M0,40v33.5c0,3.59,2.91,6.5,6.5,6.5h67c3.59,0,6.5-2.91,6.5-6.5V6.5c0-3.59-2.91-6.5-6.5-6.5H6.5C2.91,0,0,2.91,0,6.5v33.5Z"/>
  </g>
  <g id="Layer_11" data-name="Layer_1">
    <g id="Lingo" class="st5">
      <path class="st1" d="M18.11,58.5c0,3.78.06,7.7.12,7.76.03.03,1.1.06,2.4.07l2.36.04.03,1.26.02,1.27h-7.65v-13.67h2.74v3.27h-.02Z"/>
      <path class="st1" d="M27.26,56.18c.02.51.03,3.57.05,6.8l.03,5.88h-2.72l-.05-1.42c-.03-.77-.06-3.84-.06-6.8v-5.37h2.73l.03.92h-.01Z"/>
      <path class="st1" d="M34.54,59.58l2.15,4.29v-8.64h2.68l-.05,1.42c-.03.77-.06,3.85-.06,6.84v5.42l-1.42-.02-1.43-.03-2.15-4.31c-1.18-2.37-2.16-4.31-2.19-4.31s-.03,1.92-.02,4.29l.02,4.29-1.3.03c-.71.02-1.31,0-1.33,0-.03-.03-.03-3.09-.03-6.82v-6.78l1.43-.02c.78-.02,1.45,0,1.47.02.03.03,1.01,1.97,2.21,4.33,0,0,.02,0,.02,0Z"/>
      <path class="st1" d="M48.46,55.13c1.6.43,2.73,1.56,3.13,3.13.06.25.12.63.12.83v.37h-2.79l-.05-.35c-.15-1.09-1.01-1.74-2.2-1.66-1.78.12-2.64,1.85-2.52,5.07.07,2.15.56,3.34,1.6,3.96.33.19.44.21,1.19.21s.86-.03,1.25-.22c.23-.12.56-.32.71-.44l.27-.23.03-1.09.03-1.1h-2.46l.06-.42c.03-.22.05-.71.05-1.09v-.68h4.88l-.03,2.67c0,1.47-.04,2.83-.06,3.01-.03.27-.11.39-.44.69-.47.42-1.41.9-2.29,1.15-.55.16-.8.18-1.99.18-1.27,0-1.41-.03-2-.22-1.22-.41-2.14-1.2-2.73-2.32-.42-.82-.62-1.55-.78-2.72-.28-2.14-.06-4.43.58-5.83.77-1.71,2.03-2.67,3.89-3.01.53-.1,2-.03,2.56.12h.02-.03Z"/>
      <path class="st3" d="M60.57,55.15c1.87.52,3.08,1.99,3.6,4.42.12.54.15,1.01.15,2.54,0,1.69-.02,1.95-.18,2.56-.52,2.05-1.39,3.29-2.76,3.95-.98.47-1.21.52-2.64.51-1.19,0-1.34-.02-1.86-.2-.8-.28-1.24-.57-1.78-1.11-.54-.56-.87-1.14-1.21-2.12-.75-2.23-.71-5.52.08-7.53.71-1.78,2.04-2.85,3.93-3.15.47-.07,2.19.03,2.65.15h0l.02-.02h0Z"/>
      <path class="st6" d="M57.47,55.1c-1.78.41-3.02,1.53-3.74,3.53-.31.79-.37,1.24-.37,3.29,0,2.66.17,3.53,1.05,4.92.58.91,1.67,1.76,2.67,2.06.37.11,1.08.2,1.59.2,2.92.05,4.63-1.3,5.44-4.22.37-1.27.31-4.83-.08-6.04-.62-1.98-1.86-3.21-3.6-3.65-.76-.2-2.25-.24-2.96-.09h0v.02Z"/>
      <path class="st4" d="M58.17,57.46c-.86.27-1.46,1.01-1.81,2.33-.15.52-.18.82-.18,2.17,0,1.76.08,2.33.51,3.25.28.6.81,1.16,1.29,1.36.18.07.52.13.77.13,1.41.03,2.24-.86,2.63-2.79.18-.84.15-3.19-.04-3.99-.3-1.31-.9-2.12-1.74-2.41-.37-.13-1.09-.16-1.43-.06h0Z"/>
    </g>
    <g>
      <g id="Layer_4">
        <path id="speach_bubble" class="st0" d="M61.03,11.77c.99.24,1.66.62,2.41,1.35.49.46.75.8.98,1.27.63,1.23.58.34.58,13.82,0,8.45-.03,12.29-.09,12.6-.16.77-.72,1.78-1.34,2.42-.63.63-1.24,1.04-2.14,1.35-.58.22-.6.22-3.6.25l-3.02.03v2.93c0,2.66-.02,2.97-.15,3.21-.3.51-.99.75-1.57.53-.19-.07-2.08-1.63-6.67-5.46l-1.48-1.23h-12.6c-13.88,0-13.21.03-14.42-.54-1.08-.5-1.84-1.23-2.39-2.31-.57-1.09-.54-.39-.52-14l.03-12.38.22-.56c.36-.89.76-1.47,1.45-2.09.67-.62,1.48-1.04,2.29-1.23.42-.09,3.85-.11,20.9-.12,20.06,0,20.43,0,21.09.16h.05-.01Z"/>
        <g id="VFX" inkscape:groupmode="layer" inkscape:label="Speech Bubble">
          <path class="st4" d="M21.9,20.37s.75,2.87,1.67,6.34c.93,3.47,1.93,7.27,2.25,8.47l.58,2.18,2.03-.02,2.03-.03.43-1.58c.42-1.54,2.56-9.54,2.88-10.7.08-.32.42-1.49.72-2.61.31-1.11.56-2.05.56-2.07s-.73-.02-1.64,0l-1.65.03-.65,2.61c-.37,1.44-.8,3.19-.98,3.88-1.21,4.86-1.59,6.34-1.62,6.37-.02.02-.07-.18-.12-.41-.06-.25-.58-2.44-1.17-4.87-1.29-5.36-1.66-6.88-1.76-7.27l-.07-.32-1.73-.03c-.95,0-1.73,0-1.73.02v.02h-.02,0Z"/>
          <path class="st4" d="M36.44,28.84v8.51h3.26v-6.86h4.29v-2.97l-2.15.03-2.15.03v-4.25h4.69v-3h-7.95v8.51h0v-.02Z"/>
          <path class="st4" d="M46.15,21.58c.34.7,1.26,2.55,2.05,4.13l1.43,2.88-2.03,3.93c-1.12,2.17-2.14,4.13-2.26,4.37l-.22.44h3.61l1.47-2.97c.8-1.63,1.49-2.97,1.5-2.97s.68,1.32,1.48,2.94c.78,1.62,1.47,2.96,1.51,2.97.05.03.88.03,1.84.02l1.76-.03-2.2-4.36-2.19-4.36.94-1.84c.51-1.01,1.45-2.86,2.1-4.11.63-1.24,1.16-2.27,1.16-2.3,0-.02-.82-.03-1.82-.03h-1.82l-.07.21c-.07.19-2.48,5.5-2.51,5.54-.02.02-1.84-3.98-2.46-5.39l-.16-.36h-3.7l.63,1.24v.05h-.01Z"/>
        </g>
      </g>
      <text class="st2" transform="translate(14.07 68.7) scale(.98 1)"><tspan x="0" y="0">LINGO</tspan></text>
    </g>
  </g>
</svg>